<svg width="14" height="13" viewBox="0 0 14 13" fill="none" xmlns="http://www.w3.org/2000/svg">
<path d="M11.8816 2.3691C10.6714 1.17072 9.03663 0.499234 7.3335 0.50098H7.26662C5.55433 0.518598 3.91816 1.21119 2.7136 2.42827C1.50904 3.64535 0.833405 5.2886 0.833496 7.00098C0.833496 9.68848 2.49475 11.9422 5.1685 12.8866C5.47007 12.9929 5.79273 13.0254 6.10944 12.9813C6.42614 12.9372 6.72765 12.8177 6.98868 12.633C7.24971 12.4484 7.46265 12.2038 7.60965 11.9198C7.75664 11.6358 7.8334 11.3207 7.8335 11.001C7.8335 10.7358 7.93885 10.4814 8.12639 10.2939C8.31393 10.1063 8.56828 10.001 8.8335 10.001H11.7216C12.1753 10.0032 12.6161 9.85014 12.9708 9.56729C13.3255 9.28443 13.5728 8.88876 13.6716 8.44598C13.7834 7.95392 13.8377 7.45056 13.8335 6.94598C13.8271 6.09189 13.6513 5.24756 13.3163 4.46192C12.9812 3.67627 12.4936 2.96492 11.8816 2.3691ZM12.6941 8.22598C12.6445 8.44657 12.521 8.64361 12.3442 8.78453C12.1674 8.92545 11.9477 9.00181 11.7216 9.00098H8.8335C8.30306 9.00098 7.79436 9.21169 7.41928 9.58677C7.04421 9.96184 6.8335 10.4705 6.8335 11.001C6.83326 11.1607 6.79478 11.3181 6.72125 11.4599C6.64772 11.6017 6.5413 11.7238 6.41089 11.816C6.28047 11.9082 6.12987 11.9679 5.97167 11.9899C5.81348 12.012 5.6523 11.9959 5.50162 11.9429C3.23912 11.1447 1.8335 9.25098 1.8335 7.00098C1.83342 5.55209 2.40507 4.16169 3.42425 3.13186C4.44343 2.10203 5.82781 1.51596 7.27662 1.50098H7.33287C8.78174 1.50661 10.1703 2.08147 11.1992 3.10158C12.2281 4.1217 12.8148 5.50534 12.8329 6.9541C12.8366 7.3819 12.7909 7.80868 12.6966 8.22598H12.6941ZM8.0835 3.75098C8.0835 3.89932 8.03951 4.04432 7.9571 4.16766C7.87469 4.29099 7.75755 4.38712 7.62051 4.44389C7.48346 4.50066 7.33266 4.51551 7.18718 4.48657C7.04169 4.45763 6.90806 4.3862 6.80317 4.28131C6.69828 4.17642 6.62685 4.04278 6.59791 3.8973C6.56897 3.75181 6.58382 3.60101 6.64059 3.46397C6.69735 3.32692 6.79348 3.20979 6.91682 3.12738C7.04016 3.04497 7.18516 3.00098 7.3335 3.00098C7.53241 3.00098 7.72317 3.08 7.86383 3.22065C8.00448 3.3613 8.0835 3.55207 8.0835 3.75098ZM5.3335 5.25098C5.3335 5.39932 5.28951 5.54432 5.2071 5.66766C5.12469 5.79099 5.00755 5.88712 4.87051 5.94389C4.73346 6.00066 4.58266 6.01551 4.43718 5.98657C4.29169 5.95763 4.15806 5.8862 4.05317 5.78131C3.94828 5.67642 3.87685 5.54278 3.84791 5.3973C3.81897 5.25181 3.83382 5.10101 3.89059 4.96397C3.94735 4.82692 4.04348 4.70979 4.16682 4.62738C4.29016 4.54497 4.43516 4.50098 4.5835 4.50098C4.78241 4.50098 4.97317 4.58 5.11383 4.72065C5.25448 4.8613 5.3335 5.05207 5.3335 5.25098ZM5.3335 8.75098C5.3335 8.89932 5.28951 9.04432 5.2071 9.16766C5.12469 9.29099 5.00755 9.38712 4.87051 9.44389C4.73346 9.50066 4.58266 9.51551 4.43718 9.48657C4.29169 9.45763 4.15806 9.3862 4.05317 9.28131C3.94828 9.17642 3.87685 9.04278 3.84791 8.8973C3.81897 8.75181 3.83382 8.60101 3.89059 8.46397C3.94735 8.32692 4.04348 8.20979 4.16682 8.12738C4.29016 8.04497 4.43516 8.00098 4.5835 8.00098C4.78241 8.00098 4.97317 8.08 5.11383 8.22065C5.25448 8.3613 5.3335 8.55207 5.3335 8.75098ZM10.8335 5.25098C10.8335 5.39932 10.7895 5.54432 10.7071 5.66766C10.6247 5.79099 10.5076 5.88712 10.3705 5.94389C10.2335 6.00066 10.0827 6.01551 9.93718 5.98657C9.79169 5.95763 9.65806 5.8862 9.55317 5.78131C9.44828 5.67642 9.37685 5.54278 9.34791 5.3973C9.31897 5.25181 9.33382 5.10101 9.39059 4.96397C9.44735 4.82692 9.54348 4.70979 9.66682 4.62738C9.79016 4.54497 9.93516 4.50098 10.0835 4.50098C10.2824 4.50098 10.4732 4.58 10.6138 4.72065C10.7545 4.8613 10.8335 5.05207 10.8335 5.25098Z" fill="black"/>
</svg>
