<svg width="24" height="24" viewBox="0 0 24 24" fill="none" xmlns="http://www.w3.org/2000/svg">
<path d="M19.5 3.75H4.5C4.08579 3.75 3.75 4.08579 3.75 4.5V19.5C3.75 19.9142 4.08579 20.25 4.5 20.25H19.5C19.9142 20.25 20.25 19.9142 20.25 19.5V4.5C20.25 4.08579 19.9142 3.75 19.5 3.75Z" stroke="currentColor" stroke-width="1.5" stroke-linecap="round" stroke-linejoin="round"/>
<path d="M16.5 2.25V5.25" stroke="currentColor" stroke-width="1.5" stroke-linecap="round" stroke-linejoin="round"/>
<path d="M7.5 2.25V5.25" stroke="currentColor" stroke-width="1.5" stroke-linecap="round" stroke-linejoin="round"/>
<path d="M3.75 8.25H20.25" stroke="currentColor" stroke-width="1.5" stroke-linecap="round" stroke-linejoin="round"/>
<path d="M8.625 11.9998H11.25L9.75 13.8748C9.99664 13.8748 10.2395 13.9356 10.457 14.0518C10.6745 14.1681 10.86 14.3362 10.9971 14.5412C11.1341 14.7463 11.2185 14.9819 11.2427 15.2274C11.267 15.4728 11.2303 15.7205 11.136 15.9484C11.0417 16.1763 10.8926 16.3774 10.702 16.5339C10.5114 16.6904 10.2852 16.7976 10.0433 16.8458C9.80143 16.894 9.55139 16.8819 9.31534 16.8104C9.07928 16.7389 8.86449 16.6104 8.68999 16.4361" stroke="currentColor" stroke-width="1.5" stroke-linecap="round" stroke-linejoin="round"/>
<path d="M13.5 13.1248L15 11.9998V16.8748" stroke="currentColor" stroke-width="1.5" stroke-linecap="round" stroke-linejoin="round"/>
</svg>