<svg viewBox="0 0 14 14" xmlns="http://www.w3.org/2000/svg">
    <path fill-rule="evenodd" clip-rule="evenodd"
        d="M11.2861 1.69166C11.1697 1.69166 11.058 1.73791 10.9757 1.82022L6.76178 6.03415L6.55487 6.86179L7.38251 6.65488L11.5964 2.44094C11.6788 2.35863 11.725 2.24699 11.725 2.13058C11.725 2.01417 11.6788 1.90253 11.5964 1.82022C11.5141 1.73791 11.4025 1.69166 11.2861 1.69166ZM10.2333 1.07776C10.5125 0.79853 10.8912 0.641663 11.2861 0.641663C11.681 0.641663 12.0597 0.79853 12.3389 1.07776C12.6181 1.35698 12.775 1.7357 12.775 2.13058C12.775 2.52547 12.6181 2.90418 12.3389 3.18341L8.02214 7.50016C7.95486 7.56745 7.87056 7.61518 7.77824 7.63826L5.96066 8.09265C5.78175 8.13738 5.5925 8.08496 5.4621 7.95456C5.3317 7.82416 5.27928 7.63491 5.32401 7.456L5.7784 5.63842C5.80148 5.5461 5.84921 5.4618 5.91649 5.39452L10.2333 1.07776Z"
        fill="currentColor" />
    <path fill-rule="evenodd" clip-rule="evenodd"
        d="M3.3725 5.57287C3.51636 5.82462 3.42889 6.14532 3.17715 6.28918L1.93318 7.00001L7.00001 9.89535L12.0668 7.00001L11.1145 6.45584C10.8628 6.31199 10.7753 5.99129 10.9192 5.73954C11.063 5.4878 11.3837 5.40033 11.6355 5.54419L13.3855 6.54419C13.5491 6.63766 13.65 6.81161 13.65 7.00001C13.65 7.18841 13.5491 7.36237 13.3855 7.45584L7.26048 10.9558C7.09908 11.0481 6.90093 11.0481 6.73953 10.9558L0.614533 7.45584C0.450956 7.36237 0.350006 7.18841 0.350006 7.00001C0.350006 6.81161 0.450956 6.63766 0.614533 6.54419L2.6562 5.37752C2.90795 5.23367 3.22865 5.32113 3.3725 5.57287Z"
        fill="currentColor" />
    <path fill-rule="evenodd" clip-rule="evenodd"
        d="M0.419177 8.92703C0.563032 8.67528 0.883731 8.58782 1.13548 8.73168L7 12.0828L12.8645 8.73168C13.1163 8.58782 13.437 8.67528 13.5808 8.92703C13.7247 9.17878 13.6372 9.49948 13.3855 9.64333L7.26048 13.1433C7.09908 13.2356 6.90093 13.2356 6.73953 13.1433L0.614531 9.64333C0.362785 9.49948 0.275322 9.17878 0.419177 8.92703Z"
        fill="currentColor" />
    <path fill-rule="evenodd" clip-rule="evenodd"
        d="M4.39144 0.583344C4.68139 0.583344 4.91644 0.818394 4.91644 1.10834V1.43402C5.08692 1.49599 5.24333 1.58729 5.37957 1.70181L5.66197 1.53876C5.91308 1.39379 6.23416 1.47982 6.37914 1.73093C6.52411 1.98203 6.43808 2.30312 6.18697 2.44809L5.90476 2.61102C5.92001 2.69789 5.92797 2.78727 5.92797 2.87851C5.92797 2.96975 5.92001 3.05913 5.90476 3.146L6.18697 3.30893C6.43808 3.45391 6.52411 3.77499 6.37914 4.0261C6.23416 4.2772 5.91308 4.36323 5.66197 4.21826L5.37957 4.05521C5.24333 4.16973 5.08692 4.26103 4.91644 4.32301V4.64868C4.91644 4.93863 4.68139 5.17368 4.39144 5.17368C4.10149 5.17368 3.86644 4.93863 3.86644 4.64868V4.32301C3.69596 4.26103 3.53956 4.16974 3.40332 4.05522L3.12093 4.21826C2.86983 4.36323 2.54874 4.2772 2.40377 4.0261C2.25879 3.77499 2.34483 3.45391 2.59593 3.30893L2.87812 3.14601C2.86287 3.05914 2.85492 2.96975 2.85492 2.87851C2.85492 2.78727 2.86287 2.69788 2.87812 2.61101L2.59593 2.44809C2.34483 2.30312 2.25879 1.98203 2.40377 1.73093C2.54874 1.47982 2.86983 1.39379 3.12093 1.53876L3.40332 1.7018C3.53956 1.58729 3.69596 1.49599 3.86644 1.43402V1.10834C3.86644 0.818394 4.10149 0.583344 4.39144 0.583344ZM4.81015 2.6306C4.81103 2.63215 4.81191 2.6337 4.81281 2.63525C4.81378 2.63693 4.81476 2.6386 4.81574 2.64027C4.85536 2.71069 4.87797 2.79196 4.87797 2.87851C4.87797 2.96506 4.85537 3.04633 4.81574 3.11675L4.81281 3.12177L4.81015 3.12643C4.7254 3.26926 4.56965 3.36501 4.39153 3.36504H4.39144C4.21359 3.36504 4.05803 3.26961 3.97317 3.12716L3.9701 3.12177L3.96673 3.11601C3.92736 3.04577 3.90492 2.96476 3.90492 2.87851C3.90492 2.79226 3.92736 2.71125 3.96673 2.64101L3.9701 2.63525L3.97316 2.62987C4.05803 2.48742 4.21359 2.39199 4.39144 2.39199C4.5696 2.39199 4.72539 2.48774 4.81015 2.6306Z"
        fill="currentColor" />
</svg>