<svg width="298" height="228" viewBox="0 0 298 228" fill="none" xmlns="http://www.w3.org/2000/svg">
<g clip-path="url(#clip0_2308_23705)">
<path d="M239.41 67.5939H239.344L201.705 83.7051L150.206 105.749C150.005 105.834 149.789 105.878 149.57 105.879C149.352 105.88 149.136 105.838 148.934 105.755L95.8019 83.6591L57.2375 67.6202L57.1786 67.5939H57.113C56.5045 67.5945 55.9211 67.8371 55.4908 68.2685C55.0606 68.6998 54.8185 69.2846 54.8179 69.8945V169.809C54.8185 170.419 55.0606 171.004 55.4908 171.435C55.9211 171.867 56.5045 172.109 57.113 172.11H239.41C240.018 172.109 240.602 171.867 241.032 171.435C241.462 171.004 241.704 170.419 241.705 169.809V69.8945C241.704 69.2846 241.462 68.6998 241.032 68.2685C240.602 67.8371 240.018 67.5945 239.41 67.5939Z" fill="white"/>
<path d="M239.573 68.2512C239.506 68.2513 239.441 68.2307 239.386 68.1923L148.71 4.88997C148.434 4.69822 148.106 4.59575 147.771 4.59632C147.435 4.59689 147.107 4.70048 146.832 4.89317L56.8092 68.1917C56.738 68.2414 56.65 68.2607 56.5646 68.2456C56.4791 68.2304 56.4032 68.1818 56.3534 68.1106C56.3036 68.0394 56.2839 67.9513 56.2988 67.8656C56.3136 67.7799 56.3617 67.7036 56.4326 67.6534L146.455 4.35494C146.841 4.08522 147.299 3.94023 147.77 3.93946C148.24 3.93868 148.699 4.08216 149.085 4.35061L239.761 67.6528C239.818 67.6928 239.861 67.7501 239.884 67.8164C239.906 67.8826 239.907 67.9543 239.886 68.0211C239.865 68.0879 239.824 68.1462 239.767 68.1876C239.711 68.229 239.643 68.2513 239.573 68.2512Z" fill="#3F3D56"/>
<path d="M61.9536 70.4952L147.86 6.67371L234.418 75.0362L152.286 123.843L107.696 113.655L61.9536 70.4952Z" fill="#E6E6E6"/>
<path d="M111.46 153.989H69.0199C68.494 153.99 67.9894 153.781 67.617 153.409C67.2446 153.037 67.035 152.532 67.0342 152.005C67.0334 151.478 67.2415 150.972 67.6128 150.598C67.9841 150.225 68.4882 150.015 69.014 150.014H111.46C111.986 150.013 112.49 150.222 112.863 150.594C113.235 150.966 113.445 151.472 113.445 151.999C113.446 152.526 113.238 153.032 112.867 153.405C112.496 153.778 111.991 153.989 111.466 153.989H111.46Z" fill="#00BEBE"/>
<path d="M84.246 145.444H69.0195C68.4938 145.444 67.9896 145.235 67.6175 144.863C67.2454 144.491 67.0359 143.986 67.0352 143.459C67.0344 142.932 67.2423 142.427 67.6133 142.053C67.9843 141.68 68.488 141.47 69.0136 141.469H84.246C84.5065 141.468 84.7645 141.519 85.0054 141.619C85.2462 141.718 85.4652 141.864 85.6497 142.048C85.8342 142.233 85.9808 142.452 86.0808 142.693C86.1809 142.934 86.2326 143.192 86.233 143.453C86.2334 143.715 86.1825 143.973 86.0831 144.215C85.9837 144.456 85.8378 144.675 85.6539 144.86C85.4699 145.045 85.2514 145.192 85.0108 145.292C84.7702 145.392 84.5123 145.444 84.2518 145.444H84.246Z" fill="#00BEBE"/>
<path d="M149.068 106.043C148.745 106.043 148.426 105.98 148.127 105.858L95.146 83.8214V14.8428C95.1467 14.2328 95.3887 13.6481 95.819 13.2168C96.2493 12.7854 96.8326 12.5428 97.4411 12.5421H199.081C199.69 12.5428 200.273 12.7854 200.704 13.2168C201.134 13.6481 201.376 14.2328 201.377 14.8428V83.8695L201.277 83.9122L150.037 105.847C149.73 105.977 149.401 106.043 149.068 106.043Z" fill="white"/>
<path d="M149.068 106.207C148.724 106.207 148.383 106.141 148.065 106.01L94.9819 83.9312V14.8428C94.9827 14.1893 95.242 13.5627 95.703 13.1006C96.164 12.6385 96.789 12.3785 97.441 12.3778H199.081C199.733 12.3785 200.358 12.6385 200.819 13.1006C201.28 13.5627 201.54 14.1893 201.54 14.8428V83.9781L150.101 105.998C149.774 106.136 149.423 106.207 149.068 106.207ZM95.6377 83.4921L148.315 105.403C148.806 105.602 149.356 105.599 149.845 105.393L200.885 83.5441V14.8428C200.884 14.3636 200.694 13.9041 200.356 13.5652C200.018 13.2264 199.559 13.0357 199.081 13.0352H97.441C96.9629 13.0357 96.5046 13.2264 96.1665 13.5652C95.8284 13.9041 95.6383 14.3636 95.6377 14.8428L95.6377 83.4921Z" fill="#3F3D56"/>
<path d="M238.918 67.5939H238.853L201.213 83.7051L149.714 105.749C149.513 105.834 149.297 105.878 149.079 105.879C148.86 105.88 148.644 105.838 148.442 105.755L95.3102 83.6591L56.7458 67.6202L56.6869 67.5939H56.6213C56.0128 67.5945 55.4294 67.8371 54.9991 68.2685C54.5689 68.6998 54.3268 69.2846 54.3262 69.8945V169.809C54.3268 170.419 54.5689 171.004 54.9991 171.435C55.4294 171.867 56.0128 172.109 56.6213 172.11H238.918C239.527 172.109 240.11 171.867 240.54 171.435C240.971 171.004 241.213 170.419 241.213 169.809V69.8945C241.213 69.2846 240.971 68.6998 240.54 68.2685C240.11 67.8371 239.527 67.5945 238.918 67.5939ZM240.558 169.809C240.557 170.245 240.385 170.663 240.077 170.971C239.77 171.279 239.353 171.452 238.918 171.453H56.6213C56.1865 171.452 55.7696 171.279 55.4622 170.971C55.1548 170.663 54.9821 170.245 54.9819 169.809V69.8945C54.9825 69.4696 55.1469 69.0613 55.4408 68.755C55.7348 68.4488 56.1354 68.2683 56.559 68.2512L95.3102 84.369L148.19 106.363C148.762 106.597 149.403 106.593 149.973 106.354L201.213 84.4183L238.984 68.2512C239.407 68.2695 239.806 68.4505 240.099 68.7566C240.392 69.0627 240.557 69.4703 240.558 69.8945V169.809Z" fill="#3F3D56"/>
<path d="M140.82 38.3264H104.754C104.059 38.3254 103.393 38.048 102.902 37.555C102.411 37.062 102.135 36.3938 102.135 35.6971C102.135 35.0004 102.411 34.3322 102.902 33.8392C103.393 33.3462 104.059 33.0687 104.754 33.0677H140.82C141.515 33.0687 142.181 33.3462 142.672 33.8392C143.163 34.3322 143.439 35.0004 143.439 35.6971C143.439 36.3938 143.163 37.062 142.672 37.555C142.181 38.048 141.515 38.3254 140.82 38.3264Z" fill="#00BEBE"/>
<path d="M122.131 27.1518H104.754C104.058 27.1518 103.391 26.8748 102.899 26.3817C102.407 25.8886 102.131 25.2199 102.131 24.5225C102.131 23.8252 102.407 23.1564 102.899 22.6633C103.391 22.1702 104.058 21.8932 104.754 21.8932H122.131C122.827 21.8932 123.494 22.1702 123.986 22.6633C124.478 23.1564 124.754 23.8252 124.754 24.5225C124.754 25.2199 124.478 25.8886 123.986 26.3817C123.494 26.8748 122.827 27.1518 122.131 27.1518Z" fill="#00BEBE"/>
<path d="M175.236 64.6199H120.153C119.458 64.6189 118.792 64.3414 118.301 63.8484C117.81 63.3555 117.534 62.6872 117.534 61.9905C117.534 61.2938 117.81 60.6256 118.301 60.1326C118.792 59.6397 119.458 59.3622 120.153 59.3612H175.236C175.931 59.3622 176.597 59.6397 177.088 60.1326C177.579 60.6256 177.855 61.2938 177.855 61.9905C177.855 62.6872 177.579 63.3555 177.088 63.8484C176.597 64.3414 175.931 64.6189 175.236 64.6199Z" fill="#CCCCCC"/>
<path d="M175.236 76.7805H120.153C119.458 76.7805 118.79 76.5035 118.299 76.0104C117.807 75.5173 117.53 74.8485 117.53 74.1512C117.53 73.4538 117.807 72.7851 118.299 72.292C118.79 71.7989 119.458 71.5219 120.153 71.5219H175.236C175.931 71.5219 176.599 71.7989 177.09 72.292C177.582 72.7851 177.859 73.4538 177.859 74.1512C177.859 74.8485 177.582 75.5173 177.09 76.0104C176.599 76.5035 175.931 76.7805 175.236 76.7805Z" fill="#CCCCCC"/>
<path d="M237.902 93.5483C251.676 93.5483 262.843 82.3547 262.843 68.5467C262.843 54.7387 251.676 43.5452 237.902 43.5452C224.127 43.5452 212.96 54.7387 212.96 68.5467C212.96 82.3547 224.127 93.5483 237.902 93.5483Z" fill="#00BEBE"/>
<path d="M235.525 79.1006L228.06 69.4787L232.401 66.094L235.935 70.6498L247.876 58.0143L251.869 61.8064L235.525 79.1006Z" fill="white"/>
<path d="M5.96854 24.9525C5.7983 24.8516 5.60314 24.8008 5.40544 24.806C5.20774 24.8112 5.01549 24.8721 4.85074 24.9818C4.68599 25.0915 4.55541 25.2455 4.47395 25.4261C4.3925 25.6068 4.36348 25.8068 4.39021 26.0032L5.20304 31.9794C5.21421 32.0675 5.20821 32.157 5.18536 32.2428C5.15987 32.3273 5.11734 32.4056 5.0604 32.473L0.507886 37.8793C0.355801 38.0533 0.266504 38.2736 0.254356 38.5046C0.242209 38.7356 0.307922 38.964 0.440917 39.1531L0.445689 39.16C0.573091 39.3512 0.760617 39.4941 0.978409 39.566C1.1962 39.6379 1.43173 39.6347 1.64751 39.5569L4.93524 38.4383C5.04423 38.4022 5.16096 38.3964 5.27296 38.4217C5.38496 38.4469 5.488 38.5023 5.57105 38.5817C5.633 38.6392 5.68241 38.709 5.71615 38.7866C5.7499 38.8642 5.76724 38.948 5.76712 39.0326L5.89563 50.7751C5.89696 50.9451 5.93958 51.1122 6.01977 51.262C6.09995 51.4118 6.21531 51.5397 6.35588 51.6348C6.49594 51.7297 6.65667 51.7894 6.82457 51.809C6.99248 51.8286 7.16262 51.8075 7.32068 51.7474L31.8594 42.3401C32.0444 42.2695 32.2058 42.148 32.3251 41.9896C32.4443 41.8311 32.5165 41.6422 32.5333 41.4445C32.5502 41.2467 32.511 41.0482 32.4204 40.8718C32.3297 40.6954 32.1912 40.5482 32.0208 40.4472L31.6867 40.2483L5.96854 24.9525ZM4.80564 25.9458C4.78985 25.8278 4.80752 25.7078 4.85662 25.5995C4.90572 25.4911 4.98427 25.3988 5.08327 25.3331C5.18227 25.2674 5.29771 25.231 5.4164 25.2281C5.53508 25.2251 5.6522 25.2557 5.75435 25.3163L31.4643 40.6076L31.8065 40.811C31.9082 40.8719 31.9908 40.9603 32.0448 41.0659C32.0988 41.1716 32.1222 41.2904 32.1121 41.4087C32.1021 41.527 32.0592 41.6402 31.9881 41.7352C31.9171 41.8302 31.8208 41.9034 31.7104 41.9462L7.17168 51.3536C7.07677 51.3898 6.97456 51.4025 6.87371 51.3906C6.77286 51.3787 6.67637 51.3426 6.59243 51.2853C6.50849 51.228 6.43957 51.1513 6.39155 51.0616C6.34353 50.9719 6.31783 50.8719 6.31661 50.7702L6.18814 39.0278C6.18821 38.9116 6.16831 38.7962 6.12928 38.6868L31.112 41.5642C31.2094 41.5764 31.308 41.5541 31.3907 41.5012C31.4735 41.4482 31.5352 41.3679 31.5651 41.2742C31.5951 41.1805 31.5914 41.0792 31.5548 40.9879C31.5181 40.8966 31.4508 40.821 31.3644 40.7742C31.3435 40.7625 31.3215 40.7529 31.2986 40.7455L5.62598 32.1551C5.63221 32.0774 5.62968 31.9992 5.61846 31.922L4.80564 25.9458Z" fill="#F1F1F1"/>
<path d="M5.96854 24.9525C5.7983 24.8516 5.60314 24.8008 5.40544 24.806C5.20774 24.8112 5.01549 24.8721 4.85074 24.9818C4.68599 25.0915 4.55541 25.2455 4.47395 25.4261C4.3925 25.6068 4.36348 25.8068 4.39021 26.0032L5.20304 31.9794C5.21421 32.0675 5.20821 32.157 5.18536 32.2428C5.15987 32.3273 5.11734 32.4056 5.0604 32.473L0.507886 37.8793C0.355801 38.0533 0.266504 38.2736 0.254356 38.5046C0.242209 38.7356 0.307922 38.964 0.440917 39.1531L0.445689 39.16C0.573091 39.3512 0.760617 39.4941 0.978409 39.566C1.1962 39.6379 1.43173 39.6347 1.64751 39.5569L4.93524 38.4383C5.04423 38.4022 5.16096 38.3964 5.27296 38.4217C5.38496 38.4469 5.488 38.5023 5.57105 38.5817C5.633 38.6392 5.68241 38.709 5.71615 38.7866C5.7499 38.8642 5.76724 38.948 5.76712 39.0326L5.89563 50.7751C5.89696 50.9451 5.93958 51.1122 6.01977 51.262C6.09995 51.4118 6.21531 51.5397 6.35588 51.6348C6.49594 51.7297 6.65667 51.7894 6.82457 51.809C6.99248 51.8286 7.16262 51.8075 7.32068 51.7474L31.8594 42.3401C32.0444 42.2695 32.2058 42.148 32.3251 41.9896C32.4443 41.8311 32.5165 41.6422 32.5333 41.4445C32.5502 41.2467 32.511 41.0482 32.4204 40.8718C32.3297 40.6954 32.1912 40.5482 32.0208 40.4472L31.6867 40.2483L5.96854 24.9525ZM4.80564 25.9458C4.78985 25.8278 4.80752 25.7078 4.85662 25.5995C4.90572 25.4911 4.98427 25.3988 5.08327 25.3331C5.18227 25.2674 5.29771 25.231 5.4164 25.2281C5.53508 25.2251 5.6522 25.2557 5.75435 25.3163L31.4643 40.6076L31.8065 40.811C31.9082 40.8719 31.9908 40.9603 32.0448 41.0659C32.0988 41.1716 32.1222 41.2904 32.1121 41.4087C32.1021 41.527 32.0592 41.6402 31.9881 41.7352C31.9171 41.8302 31.8208 41.9034 31.7104 41.9462L7.17168 51.3536C7.07677 51.3898 6.97455 51.4025 6.87371 51.3906C6.77286 51.3787 6.67637 51.3426 6.59243 51.2853C6.50849 51.228 6.43959 51.1513 6.39157 51.0616C6.34355 50.9719 6.31783 50.8719 6.31661 50.7702L6.18812 39.0278C6.1882 38.9116 6.16829 38.7962 6.12927 38.6868C6.07428 38.5293 5.98177 38.3875 5.85975 38.2739C5.84315 38.2573 5.82482 38.2418 5.80645 38.2263L5.80528 38.2246C5.66744 38.1105 5.5028 38.0337 5.327 38.0013C5.15119 37.9689 4.97003 37.9821 4.80074 38.0396L1.51131 39.1594C1.38165 39.2066 1.23989 39.2084 1.10904 39.1647C0.978185 39.121 0.8659 39.0343 0.790386 38.9186L0.787992 38.9151C0.707274 38.8021 0.667318 38.6649 0.6747 38.5261C0.682081 38.3873 0.736365 38.2552 0.828611 38.1515L5.38119 32.7452C5.42986 32.6886 5.47202 32.6266 5.50689 32.5606L5.50862 32.5594C5.54227 32.4961 5.56911 32.4294 5.58869 32.3605C5.60838 32.2936 5.62088 32.2247 5.626 32.1552C5.63222 32.0774 5.6297 31.9992 5.61848 31.922L4.80564 25.9458Z" fill="#E5E5E5"/>
<path d="M5.62597 32.1552L31.2986 40.7455C31.3214 40.7529 31.3435 40.7625 31.3644 40.7742C31.4508 40.821 31.5181 40.8966 31.5547 40.9879C31.5914 41.0792 31.595 41.1805 31.5651 41.2742C31.5351 41.368 31.4735 41.4482 31.3907 41.5012C31.308 41.5542 31.2094 41.5765 31.1119 41.5643L6.12924 38.6868L5.68806 38.6365L5.7369 38.2182L5.80525 38.2246L5.80641 38.2263L31.1596 41.1443L5.5086 32.5594L5.50686 32.5606L5.396 32.5222L5.52915 32.1223L5.62597 32.1552Z" fill="#E5E5E5"/>
<path d="M292.268 0.146948L266.55 15.4428L266.216 15.6417C266.045 15.7427 265.907 15.8899 265.816 16.0663C265.725 16.2427 265.686 16.4412 265.703 16.6389C265.72 16.8367 265.792 17.0256 265.911 17.184C266.031 17.3425 266.192 17.4639 266.377 17.5345L290.916 26.9419C291.074 27.002 291.244 27.0231 291.412 27.0035C291.58 26.9839 291.74 26.9241 291.88 26.8293C292.021 26.7342 292.136 26.6062 292.217 26.4564C292.297 26.3066 292.339 26.1395 292.341 25.9696L292.469 14.2271C292.469 14.1424 292.486 14.0587 292.52 13.9811C292.554 13.9035 292.603 13.8337 292.665 13.7762C292.748 13.6967 292.851 13.6414 292.963 13.6161C293.075 13.5909 293.192 13.5966 293.301 13.6328L296.589 14.7514C296.805 14.8292 297.04 14.8324 297.258 14.7604C297.476 14.6885 297.663 14.5456 297.791 14.3545L297.795 14.3476C297.928 14.1585 297.994 13.9301 297.982 13.6991C297.97 13.468 297.881 13.2478 297.728 13.0738L293.176 7.66742C293.119 7.60009 293.077 7.52175 293.051 7.43727C293.028 7.35145 293.022 7.26199 293.033 7.17388L293.846 1.19767C293.873 1.00124 293.844 0.801244 293.762 0.620592C293.681 0.43994 293.55 0.285954 293.386 0.176278C293.221 0.0666019 293.029 0.00567201 292.831 0.000483523C292.633 -0.00470497 292.438 0.0460635 292.268 0.146948ZM293.431 1.14028L292.618 7.11646C292.607 7.19365 292.604 7.27186 292.61 7.34961L266.938 15.9399C266.915 15.9473 266.893 15.9569 266.872 15.9686C266.786 16.0155 266.718 16.0911 266.682 16.1824C266.645 16.2737 266.641 16.3749 266.671 16.4687C266.701 16.5624 266.763 16.6427 266.846 16.6956C266.928 16.7486 267.027 16.7709 267.124 16.7587L292.107 13.8813C292.068 13.9907 292.048 14.106 292.048 14.2222L291.92 25.9646C291.919 26.0664 291.893 26.1664 291.845 26.2561C291.797 26.3457 291.728 26.4225 291.644 26.4798C291.56 26.5371 291.464 26.5732 291.363 26.5851C291.262 26.597 291.16 26.5843 291.065 26.5481L266.526 17.1407C266.416 17.0978 266.319 17.0247 266.248 16.9296C266.177 16.8346 266.134 16.7215 266.124 16.6032C266.114 16.4848 266.138 16.3661 266.192 16.2604C266.246 16.1547 266.328 16.0664 266.43 16.0054L266.772 15.802L292.482 0.51077C292.584 0.450121 292.701 0.419534 292.82 0.422506C292.939 0.425478 293.054 0.461891 293.153 0.527577C293.252 0.593262 293.331 0.685562 293.38 0.793914C293.429 0.902266 293.447 1.02233 293.431 1.14028Z" fill="#F1F1F1"/>
<path d="M292.268 0.146948L266.55 15.4428L266.216 15.6417C266.045 15.7427 265.907 15.8899 265.816 16.0663C265.725 16.2427 265.686 16.4412 265.703 16.6389C265.72 16.8367 265.792 17.0256 265.911 17.184C266.031 17.3425 266.192 17.4639 266.377 17.5345L290.916 26.9419C291.074 27.002 291.244 27.0231 291.412 27.0035C291.58 26.9839 291.74 26.9241 291.88 26.8293C292.021 26.7342 292.136 26.6062 292.217 26.4564C292.297 26.3066 292.339 26.1395 292.341 25.9696L292.469 14.2271C292.469 14.1424 292.486 14.0587 292.52 13.9811C292.554 13.9035 292.603 13.8337 292.665 13.7762C292.748 13.6967 292.851 13.6414 292.963 13.6161C293.075 13.5909 293.192 13.5966 293.301 13.6328L296.589 14.7514C296.805 14.8292 297.04 14.8324 297.258 14.7604C297.476 14.6885 297.663 14.5456 297.791 14.3545L297.795 14.3476C297.928 14.1585 297.994 13.9301 297.982 13.6991C297.97 13.468 297.881 13.2478 297.728 13.0738L293.176 7.66742C293.119 7.60009 293.077 7.52175 293.051 7.43727C293.028 7.35145 293.022 7.26199 293.033 7.17388L293.846 1.19767C293.873 1.00124 293.844 0.801244 293.762 0.620592C293.681 0.43994 293.55 0.285954 293.386 0.176278C293.221 0.0666019 293.029 0.00567201 292.831 0.000483523C292.633 -0.00470497 292.438 0.0460635 292.268 0.146948ZM293.431 1.14028L292.618 7.11647C292.607 7.19366 292.604 7.27187 292.61 7.34962C292.615 7.41919 292.628 7.48802 292.648 7.55493C292.667 7.62389 292.694 7.69056 292.728 7.75382L292.729 7.75501C292.764 7.82108 292.807 7.88301 292.855 7.93963L297.408 13.3459C297.5 13.4497 297.554 13.5818 297.562 13.7206C297.569 13.8594 297.529 13.9966 297.448 14.1096L297.446 14.113C297.37 14.2287 297.258 14.3155 297.127 14.3592C296.997 14.4029 296.855 14.401 296.725 14.3538L293.436 13.234C293.266 13.1765 293.085 13.1633 292.909 13.1957C292.734 13.2281 292.569 13.305 292.431 13.4191L292.43 13.4208C292.412 13.4363 292.393 13.4518 292.377 13.4684C292.255 13.582 292.162 13.7237 292.107 13.8813C292.068 13.9907 292.048 14.106 292.048 14.2222L291.92 25.9646C291.919 26.0664 291.893 26.1664 291.845 26.2561C291.797 26.3457 291.728 26.4225 291.644 26.4798C291.56 26.537 291.463 26.5731 291.363 26.585C291.262 26.5969 291.16 26.5843 291.065 26.5481L266.526 17.1407C266.416 17.0978 266.319 17.0247 266.248 16.9296C266.177 16.8346 266.134 16.7215 266.124 16.6032C266.114 16.4848 266.138 16.3661 266.192 16.2604C266.246 16.1547 266.328 16.0664 266.43 16.0054L266.772 15.8021L292.482 0.510778C292.584 0.450129 292.701 0.419542 292.82 0.422514C292.939 0.425486 293.054 0.461899 293.153 0.527585C293.252 0.59327 293.331 0.68557 293.38 0.793922C293.429 0.902274 293.447 1.02233 293.431 1.14028Z" fill="#E5E5E5"/>
<path d="M292.707 7.31677L292.84 7.71666L292.729 7.75503L292.727 7.75384L267.076 16.3388L292.43 13.4208L292.431 13.4191L292.499 13.4127L292.548 13.8309L292.107 13.8813L267.124 16.7587C267.027 16.7709 266.928 16.7486 266.845 16.6957C266.763 16.6427 266.701 16.5624 266.671 16.4687C266.641 16.375 266.645 16.2737 266.681 16.1824C266.718 16.0911 266.785 16.0155 266.872 15.9687C266.893 15.957 266.915 15.9474 266.937 15.94L292.61 7.34966L292.707 7.31677Z" fill="#E5E5E5"/>
<path d="M72.1974 213.867C72.0214 213.957 71.8743 214.096 71.773 214.266C71.6717 214.436 71.6203 214.632 71.6248 214.83C71.6292 215.028 71.6893 215.221 71.798 215.386C71.9068 215.552 72.06 215.683 72.2399 215.766L77.7133 218.271C77.7935 218.309 77.8657 218.361 77.9259 218.427C77.9835 218.493 78.0268 218.571 78.0532 218.656L80.1787 225.402C80.2441 225.624 80.3821 225.817 80.5704 225.951C80.7587 226.085 80.9864 226.151 81.2169 226.14L81.2254 226.139C81.4546 226.133 81.6753 226.051 81.8524 225.905C82.0294 225.759 82.1526 225.557 82.2023 225.333L83.0162 221.95C83.0439 221.838 83.1015 221.736 83.1826 221.655C83.2638 221.573 83.3655 221.515 83.4769 221.488C83.5585 221.466 83.6437 221.461 83.7271 221.474C83.8106 221.487 83.8905 221.517 83.9618 221.562L93.9314 227.729C94.0755 227.819 94.2392 227.872 94.4083 227.884C94.5775 227.896 94.747 227.867 94.9023 227.798C95.0571 227.731 95.1934 227.626 95.2997 227.494C95.4059 227.363 95.4791 227.207 95.5129 227.041L100.695 201.223C100.734 201.028 100.718 200.827 100.648 200.641C100.578 200.455 100.458 200.293 100.3 200.173C100.142 200.053 99.9539 199.98 99.7567 199.963C99.5595 199.945 99.3614 199.984 99.1852 200.075L98.8389 200.251L72.1974 213.867ZM72.4135 215.383C72.3056 215.333 72.2138 215.254 72.1487 215.155C72.0836 215.055 72.0477 214.939 72.0453 214.821C72.0428 214.702 72.0738 214.584 72.1347 214.482C72.1956 214.38 72.284 214.297 72.3898 214.243L99.0229 200.632L99.3773 200.451C99.4831 200.397 99.6016 200.374 99.7196 200.385C99.8376 200.396 99.9502 200.439 100.045 200.511C100.139 200.583 100.211 200.68 100.254 200.791C100.296 200.902 100.306 201.022 100.283 201.139L95.1012 226.957C95.0809 227.057 95.037 227.15 94.9731 227.229C94.9092 227.308 94.8271 227.371 94.734 227.411C94.6408 227.452 94.5393 227.469 94.438 227.462C94.3367 227.455 94.2387 227.423 94.1522 227.37L84.1827 221.203C84.0847 221.141 83.9769 221.096 83.8638 221.071L99.6412 201.442C99.7036 201.366 99.7375 201.27 99.7371 201.172C99.7366 201.073 99.7019 200.978 99.6389 200.903C99.5758 200.827 99.4885 200.776 99.3919 200.758C99.2954 200.741 99.1956 200.757 99.11 200.805C99.0889 200.817 99.0691 200.83 99.0507 200.846L78.0874 218.007C78.0252 217.96 77.9579 217.92 77.8868 217.888L72.4135 215.383Z" fill="#F1F1F1"/>
<path d="M72.1974 213.867C72.0214 213.957 71.8743 214.096 71.773 214.266C71.6717 214.436 71.6203 214.632 71.6248 214.83C71.6292 215.028 71.6893 215.221 71.798 215.386C71.9068 215.552 72.06 215.683 72.2399 215.766L77.7133 218.271C77.7935 218.309 77.8657 218.361 77.9259 218.427C77.9835 218.493 78.0268 218.571 78.0532 218.656L80.1787 225.402C80.2441 225.624 80.3821 225.817 80.5704 225.951C80.7587 226.085 80.9864 226.151 81.2169 226.14L81.2254 226.139C81.4546 226.133 81.6753 226.051 81.8524 225.905C82.0294 225.759 82.1526 225.557 82.2023 225.333L83.0162 221.95C83.0439 221.838 83.1015 221.736 83.1826 221.655C83.2638 221.573 83.3655 221.515 83.4769 221.488C83.5585 221.466 83.6437 221.461 83.7271 221.474C83.8106 221.487 83.8905 221.517 83.9618 221.562L93.9314 227.729C94.0755 227.819 94.2392 227.872 94.4083 227.884C94.5775 227.896 94.747 227.867 94.9023 227.798C95.0571 227.731 95.1934 227.626 95.2997 227.494C95.4059 227.363 95.4791 227.207 95.5129 227.041L100.695 201.223C100.734 201.028 100.718 200.827 100.648 200.641C100.578 200.455 100.458 200.293 100.3 200.173C100.142 200.053 99.9539 199.98 99.7567 199.963C99.5595 199.945 99.3614 199.984 99.1852 200.075L98.8389 200.251L72.1974 213.867ZM72.4135 215.383C72.3056 215.333 72.2138 215.254 72.1487 215.155C72.0836 215.055 72.0477 214.939 72.0453 214.821C72.0428 214.702 72.0738 214.584 72.1347 214.482C72.1956 214.38 72.284 214.297 72.3898 214.243L99.0229 200.632L99.3773 200.451C99.4831 200.397 99.6016 200.374 99.7196 200.385C99.8376 200.396 99.9502 200.439 100.045 200.511C100.139 200.583 100.211 200.68 100.254 200.791C100.296 200.902 100.306 201.022 100.283 201.139L95.1012 226.957C95.0809 227.057 95.037 227.15 94.9731 227.229C94.9092 227.308 94.8271 227.371 94.734 227.411C94.6408 227.452 94.5393 227.469 94.438 227.462C94.3367 227.455 94.2387 227.423 94.1522 227.37L84.1827 221.203C84.0847 221.141 83.9768 221.096 83.8637 221.071C83.7015 221.033 83.5326 221.036 83.3716 221.078C83.3487 221.084 83.3258 221.091 83.3029 221.098L83.3009 221.098C83.131 221.154 82.9782 221.252 82.857 221.384C82.7357 221.516 82.65 221.676 82.608 221.85L81.7943 225.236C81.7647 225.371 81.6906 225.492 81.5838 225.58C81.477 225.667 81.3438 225.716 81.2059 225.718L81.2017 225.718C81.0633 225.726 80.9263 225.687 80.8132 225.606C80.7001 225.526 80.6177 225.409 80.5795 225.276L78.4541 218.529C78.4324 218.458 78.4027 218.389 78.3656 218.324L78.3655 218.322C78.3302 218.26 78.2883 218.201 78.2406 218.148C78.1947 218.095 78.1434 218.048 78.0875 218.007C78.0252 217.96 77.9579 217.92 77.8868 217.888L72.4135 215.383Z" fill="#E5E5E5"/>
<path d="M78.0873 218.006L99.0504 200.846C99.0689 200.83 99.0888 200.817 99.1098 200.805C99.1954 200.757 99.2952 200.741 99.3917 200.758C99.4883 200.776 99.5756 200.827 99.6387 200.903C99.7017 200.978 99.7364 201.073 99.7368 201.172C99.7373 201.27 99.7034 201.366 99.641 201.442L83.8635 221.071L83.5853 221.418L83.2588 221.153L83.3007 221.098L83.3027 221.098L99.3124 201.177L78.3653 218.322L78.3654 218.324L78.2738 218.397L78.0078 218.071L78.0873 218.006Z" fill="#E5E5E5"/>
</g>
<defs>
<clipPath id="clip0_2308_23705">
<rect width="298" height="228" fill="white"/>
</clipPath>
</defs>
</svg>
